# xmcd
#
# Track frame offsets:
# 182
# 9670
# 27220
# 37995
# 53195
# 66920
# 83477
# 106090
# 123770
# 138420
# 153132
# 170582
# 181507
# 195845
# 210920
# 226407
# 240532
# 254870
# 270157
# 284095
#
# Disc length: 4007 seconds
#
# Revision: 11
# Processed by: cddbd v1.5.1PL2 Copyright (c) Steve Scherf et al.
# Submitted via: CoinsHifi v1.6 contact@coinshifi.com
#
DISCID=fc0fa514
DTITLE=Tri Yann - le meilleur de Tri Yann
DYEAR=1996
DGENRE=Celtic
TTITLE0=Les prisons de Nantes
TTITLE1=Le soleil est noir
TTITLE2=Les filles des forges
TTITLE3=Princes qu'en mains tenez
TTITLE4=Complainte Gallaise
TTITLE5=Kiss the children for me Mary
TTITLE6=Complainte de Yuna Madalen
TTITLE7=La ville que j'ai tant aimée
TTITLE8=Pelot d'Hennebont
TTITLE9=Si mort à mors
TTITLE10=Le renard
TTITLE11=Kan peoc'h
TTITLE12=La découverte ou l'ignorance
TTITLE13=Gwerz jorj courtois
TTITLE14=Dérobée de Guingamps
TTITLE15=Réel de Louis Marie
TTITLE16=Les filles de Redon
TTITLE17=Le mariage insolite de Marie la Bretonne
TTITLE18=Déjà mal mariée
TTITLE19=La jument de Michao
EXTD=
EXTT0=
EXTT1=
EXTT2=
EXTT3=
EXTT4=
EXTT5=
EXTT6=
EXTT7=
EXTT8=
EXTT9=
EXTT10=
EXTT11=
EXTT12=
EXTT13=
EXTT14=
EXTT15=
EXTT16=
EXTT17=
EXTT18=Live
EXTT19=Live
PLAYORDER=
